<svg width="29" height="28" viewBox="0 0 29 28" fill="none" xmlns="http://www.w3.org/2000/svg">
<path d="M25 6.97664C21.115 6.59164 17.2067 6.39331 13.31 6.39331C11 6.39331 8.69 6.50998 6.38 6.74331L4 6.97664" stroke="#9038FF" stroke-width="1.5" stroke-linecap="round" stroke-linejoin="round"/>
<path d="M10.4166 5.79837L10.6733 4.27004C10.86 3.16171 11 2.33337 12.9716 2.33337H16.0283C18 2.33337 18.1516 3.20837 18.3266 4.28171L18.5833 5.79837" stroke="#9038FF" stroke-width="1.5" stroke-linecap="round" stroke-linejoin="round"/>
<path d="M22.4916 10.6633L21.7333 22.4117C21.605 24.2433 21.5 25.6667 18.245 25.6667H10.755C7.49997 25.6667 7.39497 24.2433 7.26663 22.4117L6.5083 10.6633" stroke="#9038FF" stroke-width="1.5" stroke-linecap="round" stroke-linejoin="round"/>
<path d="M12.5516 19.25H16.4366" stroke="#9038FF" stroke-width="1.5" stroke-linecap="round" stroke-linejoin="round"/>
<path d="M11.5834 14.5834H17.4167" stroke="#9038FF" stroke-width="1.5" stroke-linecap="round" stroke-linejoin="round"/>
</svg>
