<svg width="174" height="78" viewBox="0 0 174 78" fill="none" xmlns="http://www.w3.org/2000/svg">
<g filter="url(#filter0_d_37_307)">
<rect x="12" y="10" width="150" height="54" rx="15" fill="white" shape-rendering="crispEdges"/>
<path d="M66.5011 37.2332C66.5011 36.3699 66.4296 35.7399 66.2749 35.0865H56.2154V38.9832H62.1201C62.0011 39.9515 61.3582 41.4099 59.9296 42.3898L59.9096 42.5203L63.0902 44.935L63.3106 44.9565C65.3344 43.1249 66.5011 40.4298 66.5011 37.2332Z" fill="#4285F4"/>
<path d="M56.2147 47.5C59.1075 47.5 61.536 46.5666 63.3099 44.9567L59.9289 42.3899C59.0242 43.0083 57.8099 43.4399 56.2147 43.4399C53.3814 43.4399 50.9767 41.6083 50.1194 39.0766L49.9938 39.0871L46.6865 41.5954L46.6433 41.7132C48.4052 45.1433 52.0242 47.5 56.2147 47.5Z" fill="#34A853"/>
<path d="M50.12 39.0767C49.8938 38.4233 49.7629 37.7233 49.7629 37C49.7629 36.2766 49.8938 35.5766 50.1081 34.9233L50.1021 34.7842L46.7534 32.2355L46.6439 32.2866C45.9177 33.71 45.501 35.3083 45.501 37C45.501 38.6916 45.9177 40.2899 46.6439 41.7133L50.12 39.0767Z" fill="#FBBC05"/>
<path d="M56.2148 30.56C58.2266 30.56 59.5837 31.4116 60.3576 32.1233L63.3814 29.23C61.5243 27.5383 59.1076 26.5 56.2148 26.5C52.0242 26.5 48.4052 28.8566 46.6433 32.2866L50.1076 34.9233C50.9767 32.3917 53.3814 30.56 56.2148 30.56Z" fill="#EB4335"/>
<path d="M81.6554 43.16C80.8447 43.16 80.0874 43.016 79.3834 42.728C78.6794 42.4293 78.0607 42.0187 77.5274 41.496C77.0047 40.9627 76.594 40.3493 76.2954 39.656C75.9967 38.9627 75.8474 38.2107 75.8474 37.4C75.8474 36.5893 75.9967 35.8373 76.2954 35.144C76.594 34.4507 77.0047 33.8427 77.5274 33.32C78.0607 32.7867 78.6794 32.376 79.3834 32.088C80.0874 31.7893 80.8447 31.64 81.6554 31.64C82.178 31.64 82.6847 31.6987 83.1754 31.816C83.666 31.9333 84.1087 32.104 84.5034 32.328C84.642 32.4027 84.7434 32.504 84.8074 32.632C84.8714 32.7493 84.9034 32.8667 84.9034 32.984C84.9034 33.208 84.8287 33.4053 84.6794 33.576C84.5407 33.736 84.3647 33.816 84.1514 33.816C84.0767 33.816 83.9967 33.8053 83.9114 33.784C83.8367 33.7627 83.7674 33.736 83.7034 33.704C83.4047 33.5547 83.0847 33.4427 82.7434 33.368C82.402 33.2827 82.0394 33.24 81.6554 33.24C80.8874 33.24 80.194 33.4267 79.5754 33.8C78.9567 34.1627 78.466 34.6587 78.1034 35.288C77.7514 35.9173 77.5754 36.6213 77.5754 37.4C77.5754 38.168 77.7514 38.872 78.1034 39.512C78.466 40.1413 78.9567 40.6427 79.5754 41.016C80.194 41.3787 80.8874 41.56 81.6554 41.56C82.0287 41.56 82.4234 41.5173 82.8394 41.432C83.2554 41.336 83.6074 41.2133 83.8954 41.064L83.7674 41.496V38.456L84.0234 38.68H81.9274C81.6927 38.68 81.4954 38.6053 81.3354 38.456C81.186 38.3067 81.1114 38.1147 81.1114 37.88C81.1114 37.6453 81.186 37.4533 81.3354 37.304C81.4954 37.1547 81.6927 37.08 81.9274 37.08H84.6954C84.9194 37.08 85.106 37.16 85.2554 37.32C85.4154 37.4693 85.4954 37.6613 85.4954 37.896V41.448C85.4954 41.6187 85.4527 41.7627 85.3674 41.88C85.282 41.9973 85.186 42.0933 85.0794 42.168C84.5994 42.4667 84.066 42.7067 83.4794 42.888C82.9034 43.0693 82.2954 43.16 81.6554 43.16ZM95.564 38.792C95.564 39.6453 95.3773 40.4027 95.004 41.064C94.6307 41.7147 94.124 42.2267 93.484 42.6C92.844 42.9733 92.124 43.16 91.324 43.16C90.524 43.16 89.804 42.9733 89.164 42.6C88.524 42.2267 88.012 41.7147 87.628 41.064C87.2547 40.4027 87.068 39.6453 87.068 38.792C87.068 37.928 87.2547 37.1707 87.628 36.52C88.012 35.8587 88.524 35.3413 89.164 34.968C89.804 34.584 90.524 34.392 91.324 34.392C92.124 34.392 92.844 34.584 93.484 34.968C94.124 35.3413 94.6307 35.8587 95.004 36.52C95.3773 37.1707 95.564 37.928 95.564 38.792ZM93.964 38.792C93.964 38.2053 93.8467 37.6987 93.612 37.272C93.3773 36.8347 93.0573 36.4933 92.652 36.248C92.2573 35.992 91.8147 35.864 91.324 35.864C90.8333 35.864 90.3853 35.992 89.98 36.248C89.5747 36.4933 89.2547 36.8347 89.02 37.272C88.7853 37.6987 88.668 38.2053 88.668 38.792C88.668 39.3573 88.7853 39.8587 89.02 40.296C89.2547 40.7333 89.5747 41.0747 89.98 41.32C90.3853 41.5653 90.8333 41.688 91.324 41.688C91.8147 41.688 92.2573 41.5653 92.652 41.32C93.0573 41.0747 93.3773 40.7333 93.612 40.296C93.8467 39.8587 93.964 39.3573 93.964 38.792ZM105.519 38.792C105.519 39.6453 105.332 40.4027 104.959 41.064C104.586 41.7147 104.079 42.2267 103.439 42.6C102.799 42.9733 102.079 43.16 101.279 43.16C100.479 43.16 99.759 42.9733 99.119 42.6C98.479 42.2267 97.967 41.7147 97.583 41.064C97.2097 40.4027 97.023 39.6453 97.023 38.792C97.023 37.928 97.2097 37.1707 97.583 36.52C97.967 35.8587 98.479 35.3413 99.119 34.968C99.759 34.584 100.479 34.392 101.279 34.392C102.079 34.392 102.799 34.584 103.439 34.968C104.079 35.3413 104.586 35.8587 104.959 36.52C105.332 37.1707 105.519 37.928 105.519 38.792ZM103.919 38.792C103.919 38.2053 103.802 37.6987 103.567 37.272C103.332 36.8347 103.012 36.4933 102.607 36.248C102.212 35.992 101.77 35.864 101.279 35.864C100.788 35.864 100.34 35.992 99.935 36.248C99.5297 36.4933 99.2097 36.8347 98.975 37.272C98.7403 37.6987 98.623 38.2053 98.623 38.792C98.623 39.3573 98.7403 39.8587 98.975 40.296C99.2097 40.7333 99.5297 41.0747 99.935 41.32C100.34 41.5653 100.788 41.688 101.279 41.688C101.77 41.688 102.212 41.5653 102.607 41.32C103.012 41.0747 103.332 40.7333 103.567 40.296C103.802 39.8587 103.919 39.3573 103.919 38.792ZM110.914 34.392C111.373 34.392 111.794 34.4667 112.178 34.616C112.562 34.7653 112.893 34.9573 113.17 35.192C113.458 35.416 113.682 35.6507 113.842 35.896C114.002 36.1413 114.082 36.3547 114.082 36.536L113.714 36.552V35.272C113.714 35.048 113.789 34.856 113.938 34.696C114.087 34.536 114.279 34.456 114.514 34.456C114.749 34.456 114.941 34.536 115.09 34.696C115.239 34.8453 115.314 35.0373 115.314 35.272V42.328C115.314 43.2347 115.122 43.9707 114.738 44.536C114.354 45.112 113.842 45.5333 113.202 45.8C112.573 46.0667 111.879 46.2 111.122 46.2C110.855 46.2 110.541 46.1627 110.178 46.088C109.815 46.024 109.479 45.944 109.17 45.848C108.871 45.752 108.663 45.656 108.546 45.56C108.301 45.432 108.135 45.2827 108.05 45.112C107.975 44.9413 107.975 44.7707 108.05 44.6C108.157 44.3653 108.301 44.2213 108.482 44.168C108.663 44.1147 108.871 44.1307 109.106 44.216C109.213 44.248 109.378 44.3067 109.602 44.392C109.826 44.4773 110.077 44.552 110.354 44.616C110.631 44.6907 110.893 44.728 111.138 44.728C111.991 44.728 112.631 44.5307 113.058 44.136C113.495 43.7413 113.714 43.2027 113.714 42.52V41.08L113.89 41.192C113.858 41.416 113.757 41.6453 113.586 41.88C113.426 42.104 113.213 42.312 112.946 42.504C112.679 42.696 112.37 42.856 112.018 42.984C111.677 43.1013 111.325 43.16 110.962 43.16C110.205 43.16 109.527 42.9733 108.93 42.6C108.333 42.216 107.858 41.6987 107.506 41.048C107.154 40.3867 106.978 39.6293 106.978 38.776C106.978 37.9227 107.154 37.1707 107.506 36.52C107.858 35.8587 108.327 35.3413 108.914 34.968C109.511 34.584 110.178 34.392 110.914 34.392ZM111.154 35.864C110.631 35.864 110.173 35.992 109.778 36.248C109.383 36.504 109.074 36.8507 108.85 37.288C108.626 37.7253 108.514 38.2213 108.514 38.776C108.514 39.3307 108.626 39.8267 108.85 40.264C109.074 40.7013 109.383 41.048 109.778 41.304C110.173 41.56 110.631 41.688 111.154 41.688C111.677 41.688 112.135 41.5653 112.53 41.32C112.925 41.064 113.234 40.7173 113.458 40.28C113.682 39.832 113.794 39.3307 113.794 38.776C113.794 38.2213 113.682 37.7253 113.458 37.288C113.234 36.84 112.925 36.4933 112.53 36.248C112.135 35.992 111.677 35.864 111.154 35.864ZM119.343 42.184C119.343 42.4187 119.263 42.616 119.103 42.776C118.954 42.9253 118.767 43 118.543 43C118.319 43 118.127 42.9253 117.967 42.776C117.818 42.616 117.743 42.4187 117.743 42.184V31.976C117.743 31.7413 117.823 31.5493 117.983 31.4C118.143 31.24 118.335 31.16 118.559 31.16C118.794 31.16 118.98 31.24 119.119 31.4C119.268 31.5493 119.343 31.7413 119.343 31.976V42.184ZM125.568 43.16C124.683 43.16 123.915 42.9787 123.264 42.616C122.613 42.2427 122.107 41.736 121.744 41.096C121.392 40.4453 121.216 39.704 121.216 38.872C121.216 37.9333 121.403 37.1333 121.776 36.472C122.16 35.8 122.656 35.288 123.264 34.936C123.872 34.5733 124.517 34.392 125.2 34.392C125.723 34.392 126.219 34.4987 126.688 34.712C127.157 34.9147 127.573 35.2027 127.936 35.576C128.309 35.9387 128.603 36.3707 128.816 36.872C129.029 37.3627 129.141 37.9013 129.152 38.488C129.141 38.7013 129.056 38.8773 128.896 39.016C128.736 39.1547 128.549 39.224 128.336 39.224H122.112L121.728 37.864H127.744L127.44 38.152V37.752C127.419 37.3787 127.296 37.0533 127.072 36.776C126.848 36.488 126.571 36.2693 126.24 36.12C125.909 35.96 125.563 35.88 125.2 35.88C124.88 35.88 124.571 35.9333 124.272 36.04C123.984 36.136 123.723 36.296 123.488 36.52C123.264 36.744 123.083 37.0427 122.944 37.416C122.816 37.7787 122.752 38.232 122.752 38.776C122.752 39.3627 122.875 39.8747 123.12 40.312C123.365 40.7493 123.696 41.0907 124.112 41.336C124.528 41.5707 124.987 41.688 125.488 41.688C125.883 41.688 126.208 41.6507 126.464 41.576C126.72 41.4907 126.933 41.3893 127.104 41.272C127.275 41.1547 127.424 41.0427 127.552 40.936C127.712 40.84 127.872 40.792 128.032 40.792C128.224 40.792 128.384 40.8613 128.512 41C128.64 41.128 128.704 41.2827 128.704 41.464C128.704 41.6987 128.587 41.912 128.352 42.104C128.064 42.3813 127.664 42.6267 127.152 42.84C126.651 43.0533 126.123 43.16 125.568 43.16Z" fill="#828282"/>
</g>
<defs>
<filter id="filter0_d_37_307" x="0" y="0" width="174" height="78" filterUnits="userSpaceOnUse" color-interpolation-filters="sRGB">
<feFlood flood-opacity="0" result="BackgroundImageFix"/>
<feColorMatrix in="SourceAlpha" type="matrix" values="0 0 0 0 0 0 0 0 0 0 0 0 0 0 0 0 0 0 127 0" result="hardAlpha"/>
<feOffset dy="2"/>
<feGaussianBlur stdDeviation="6"/>
<feComposite in2="hardAlpha" operator="out"/>
<feColorMatrix type="matrix" values="0 0 0 0 0.301961 0 0 0 0 0.443137 0 0 0 0 0.47451 0 0 0 0.08 0"/>
<feBlend mode="normal" in2="BackgroundImageFix" result="effect1_dropShadow_37_307"/>
<feBlend mode="normal" in="SourceGraphic" in2="effect1_dropShadow_37_307" result="shape"/>
</filter>
</defs>
</svg>
